<svg viewBox="0 0 512 512" xmlns="http://www.w3.org/2000/svg" role="img" aria-label="CryptoSmart">
  <defs>
    <linearGradient id="csNavy" x1="0" y1="0" x2="1" y2="1">
      <stop offset="0" stop-color="#214E8A"></stop><stop offset="1" stop-color="#16315a"></stop>
    </linearGradient>
    <linearGradient id="csTurq" x1="0" y1="0" x2="1" y2="1">
      <stop offset="0" stop-color="#22d3c0"></stop><stop offset="1" stop-color="#138f84"></stop>
    </linearGradient>
  </defs>
  
  <rect x="20" y="20" width="472" height="472" rx="132" fill="url(#csNavy)"></rect>
  
  <path d="M150 196&#xA;           C150 150 178 126 226 126&#xA;           L356 126 C398 126 420 150 420 188&#xA;           C420 226 398 248 356 248&#xA;           L300 248" fill="none" stroke="#ffffff" stroke-width="78" stroke-linecap="round"></path>
  <path d="M150 196&#xA;           C150 150 178 126 226 126&#xA;           L356 126 C398 126 420 150 420 188&#xA;           C420 226 398 248 356 248&#xA;           L300 248" fill="none" stroke="url(#csTurq)" stroke-width="58" stroke-linecap="round"></path>
  
  <path d="M362 316&#xA;           C362 362 334 386 286 386&#xA;           L156 386 C114 386 92 362 92 324&#xA;           C92 286 114 264 156 264&#xA;           L212 264" fill="none" stroke="#ffffff" stroke-width="78" stroke-linecap="round"></path>
  <path d="M362 316&#xA;           C362 362 334 386 286 386&#xA;           L156 386 C114 386 92 362 92 324&#xA;           C92 286 114 264 156 264&#xA;           L212 264" fill="none" stroke="url(#csTurq)" stroke-width="58" stroke-linecap="round"></path>
</svg>