<svg viewBox="0 0 512 512" xmlns="http://www.w3.org/2000/svg" role="img" aria-label="CryptoSmart">
  <defs>
    <linearGradient id="cs-navy" x1="0" y1="0" x2="1" y2="1">
      <stop offset="0" stop-color="#214E8A"/>
      <stop offset="1" stop-color="#162F55"/>
    </linearGradient>
    <linearGradient id="cs-turq" x1="0" y1="0" x2="1" y2="1">
      <stop offset="0" stop-color="#4ED9CC"/>
      <stop offset="1" stop-color="#128F84"/>
    </linearGradient>
  </defs>
  <!-- بدنهٔ سرمه‌ای با گوشه‌های نرم -->
  <rect x="16" y="16" width="480" height="480" rx="140" fill="url(#cs-navy)"/>
  <!-- شکل فیروزه‌ای انتزاعی با حاشیهٔ سفید -->
  <path d="M150 150
           C150 110 182 96 222 96
           L360 96
           C400 96 416 128 416 168
           L416 188
           C416 214 396 230 360 230
           L250 230
           C236 230 230 238 230 252
           C230 266 236 274 250 274
           L344 274
           C392 274 416 300 416 344
           C416 388 392 416 344 416
           L208 416
           C168 416 150 392 150 352
           L150 332
           C150 306 170 290 206 290
           L196 290
           C150 290 134 264 134 224
           Z"
        fill="none" stroke="#FFFFFF" stroke-width="34" stroke-linejoin="round"/>
  <path d="M150 150
           C150 110 182 96 222 96
           L360 96
           C400 96 416 128 416 168
           L416 188
           C416 214 396 230 360 230
           L250 230
           C236 230 230 238 230 252
           C230 266 236 274 250 274
           L344 274
           C392 274 416 300 416 344
           C416 388 392 416 344 416
           L208 416
           C168 416 150 392 150 352
           L150 332
           C150 306 170 290 206 290
           L196 290
           C150 290 134 264 134 224
           Z"
        fill="url(#cs-turq)"/>
</svg>
